<svg xmlns="http://www.w3.org/2000/svg" width="16.476" height="11.878" viewBox="0 0 12.607 15.509">
  <g id="lock-svgrepo-com" transform="translate(-4.278 -2.347)">
    <path id="Caminho_3134" data-name="Caminho 3134" d="M4.778,17.613V12.534a1.451,1.451,0,0,1,1.451-1.451h8.706a1.451,1.451,0,0,1,1.451,1.451v5.078a1.451,1.451,0,0,1-1.451,1.451H6.229A1.451,1.451,0,0,1,4.778,17.613Z" transform="translate(0 -1.707)" fill="none" stroke="#47a09e" stroke-linecap="round" stroke-width="1"/>
    <path id="Caminho_3135" data-name="Caminho 3135" d="M6.608,9.376V7.2a4.353,4.353,0,0,1,4.353-4.353h0A4.353,4.353,0,0,1,15.314,7.2V9.376" transform="translate(-0.379)" fill="none" stroke="#47a09e" stroke-linecap="round" stroke-width="1"/>
    <path id="Caminho_3136" data-name="Caminho 3136" d="M12,15v1.585" transform="translate(-1.497 -2.519)" fill="none" stroke="#47a09e" stroke-linecap="round" stroke-width="1"/>
  </g>
</svg>
