<svg xmlns="http://www.w3.org/2000/svg" width="16.476" height="11.878" viewBox="0 0 9.513 14.476">
  <g id="dollar" transform="translate(-0.25 -0.25)">
    <path id="Caminho_3881" data-name="Caminho 3881" d="M5.87,14.726a.629.629,0,0,1-.62-.62V.87a.62.62,0,1,1,1.241,0V14.105a.629.629,0,0,1-.62.62Z" transform="translate(-0.864)" fill="#47a09e"/>
    <path id="Caminho_3882" data-name="Caminho 3882" d="M6.247,13.416H.87a.62.62,0,0,1,0-1.241H6.247a2.1,2.1,0,0,0,2.275-1.861A2.1,2.1,0,0,0,6.247,8.452H3.766A3.309,3.309,0,0,1,.25,5.351a3.309,3.309,0,0,1,3.516-3.1H8.315a.62.62,0,0,1,0,1.241H3.766A2.1,2.1,0,0,0,1.491,5.351,2.1,2.1,0,0,0,3.766,7.212H6.247a3.309,3.309,0,0,1,3.516,3.1,3.309,3.309,0,0,1-3.516,3.1Z" transform="translate(0 -0.344)" fill="#47a09e"/>
  </g>
</svg>
