<svg xmlns="http://www.w3.org/2000/svg" width="16.476" height="11.878" viewBox="0 0 16.476 11.878">
  <g id="shopping-store-credit-card-svgrepo-com" transform="translate(0 -71.442)">
    <g id="Grupo_24283" data-name="Grupo 24283" transform="translate(0 71.442)">
      <g id="Grupo_24282" data-name="Grupo 24282" transform="translate(0 0)">
        <path id="Caminho_2998" data-name="Caminho 2998" d="M15.135,71.442H4.406a1.343,1.343,0,0,0-1.341,1.341v1.341H1.341A1.343,1.343,0,0,0,0,75.465v6.514A1.343,1.343,0,0,0,1.341,83.32H12.07a1.343,1.343,0,0,0,1.341-1.341V80.638h1.724A1.343,1.343,0,0,0,16.476,79.3V72.783A1.343,1.343,0,0,0,15.135,71.442ZM12.261,81.979a.192.192,0,0,1-.192.192H1.341a.192.192,0,0,1-.192-.192V77.573H12.261Zm0-5.556H1.149v-.958a.192.192,0,0,1,.192-.192H12.07a.192.192,0,0,1,.192.192ZM15.327,79.3a.192.192,0,0,1-.192.192H13.411V75.465a1.343,1.343,0,0,0-1.341-1.341H4.215V72.783a.192.192,0,0,1,.192-.192H15.135a.192.192,0,0,1,.192.192V79.3Z" transform="translate(0 -71.442)" fill="#47a09e"/>
      </g>
    </g>
  </g>
</svg>
