<svg id="ic_avancar" xmlns="http://www.w3.org/2000/svg" width="25.613" height="25.613" viewBox="0 0 25.613 25.613">
  <path id="Caminho_97" data-name="Caminho 97" d="M12.514,10.329a1.193,1.193,0,0,1,1.681,0l5.874,5.892a1.187,1.187,0,0,1,.037,1.638l-5.788,5.806a1.186,1.186,0,1,1-1.681-1.675L17.55,17,12.508,12.01A1.187,1.187,0,0,1,12.514,10.329Z" transform="translate(-2.496 -4.197)" fill="#4ea19e"/>
  <path id="Caminho_98" data-name="Caminho 98" d="M16.182,3.375A12.807,12.807,0,1,1,3.375,16.182,12.8,12.8,0,0,1,16.182,3.375ZM8.522,23.841A10.832,10.832,0,1,0,23.841,8.522,10.832,10.832,0,1,0,8.522,23.841Z" transform="translate(-3.375 -3.375)" fill="#4ea19e"/>
</svg>
