<svg xmlns="http://www.w3.org/2000/svg" width="36.235" height="26.123" viewBox="0 0 36.235 26.123">
  <g id="ic_carteirinhas" transform="translate(0 -71.442)">
    <g id="ic_carteirinhas-2" data-name="ic_carteirinhas" transform="translate(0 71.442)">
      <g id="Grupo_24282" data-name="Grupo 24282" transform="translate(0 0)">
        <path id="Caminho_2998" data-name="Caminho 2998" d="M33.285,71.442H9.691a2.953,2.953,0,0,0-2.949,2.949v2.949H2.949A2.953,2.953,0,0,0,0,80.29V94.615a2.953,2.953,0,0,0,2.949,2.949H26.544a2.953,2.953,0,0,0,2.949-2.949V91.666h3.792a2.953,2.953,0,0,0,2.949-2.949V74.391A2.953,2.953,0,0,0,33.285,71.442Zm-6.32,23.173a.422.422,0,0,1-.421.421H2.949a.422.422,0,0,1-.421-.421V84.925H26.965Zm0-12.219H2.528V80.29a.422.422,0,0,1,.421-.421H26.544a.422.422,0,0,1,.421.421Zm6.741,6.32a.422.422,0,0,1-.421.421H29.493V80.29a2.953,2.953,0,0,0-2.949-2.949H9.269V74.391a.422.422,0,0,1,.421-.421H33.285a.422.422,0,0,1,.421.421V88.717Z" transform="translate(0 -71.442)" fill="#47a09e"/>
      </g>
    </g>
  </g>
</svg>
