<svg xmlns="http://www.w3.org/2000/svg" width="19.841" height="17.436" viewBox="0 0 19.841 17.436">
  <g id="ic_menu" transform="translate(-7.75 -8.75)">
    <path id="Caminho_2951" data-name="Caminho 2951" d="M26.088,20.75H9.253a1.5,1.5,0,0,0,0,3.006H26.088a1.5,1.5,0,1,0,0-3.006Z" transform="translate(0 2.43)" fill="#408f8d"/>
    <path id="Caminho_2952" data-name="Caminho 2952" d="M26.088,14.75H9.253a1.5,1.5,0,0,0,0,3.006H26.088a1.5,1.5,0,0,0,0-3.006Z" transform="translate(0 1.215)" fill="#408f8d"/>
    <path id="Caminho_2953" data-name="Caminho 2953" d="M9.253,11.756H26.088a1.5,1.5,0,1,0,0-3.006H9.253a1.5,1.5,0,1,0,0,3.006Z" transform="translate(0)" fill="#408f8d"/>
  </g>
</svg>
