<svg id="ic_menu_perfil" xmlns="http://www.w3.org/2000/svg" width="16.512" height="17.298" viewBox="0 0 16.512 17.298">
  <path id="Caminho_2945" data-name="Caminho 2945" d="M12.032,10.964A4.932,4.932,0,1,0,7.1,6.032,4.942,4.942,0,0,0,12.032,10.964Zm0-8.578A3.717,3.717,0,1,1,8.315,6.1,3.691,3.691,0,0,1,12.032,2.387Z" transform="translate(-3.812 -1.1)" fill="#4ea19e"/>
  <path id="Caminho_2946" data-name="Caminho 2946" d="M14.509,15.5H12.793l-.143.071a4.557,4.557,0,0,1-3.86,0L8.719,15.5H6.932A4.454,4.454,0,0,0,2.5,19.932v.5A2.122,2.122,0,0,0,4.573,22.5H17.01a2.015,2.015,0,0,0,2-2.073v-.5A4.516,4.516,0,0,0,14.509,15.5ZM17.8,19.932v.5a.869.869,0,0,1-.858.858H4.5a.869.869,0,0,1-.858-.858v-.5A3.2,3.2,0,0,1,6.86,16.715h1.5a5.834,5.834,0,0,0,4.646,0h1.5A3.265,3.265,0,0,1,17.8,19.932Z" transform="translate(-2.5 -5.207)" fill="#4ea19e"/>
</svg>
