<svg xmlns="http://www.w3.org/2000/svg" width="16.476" height="11.878" viewBox="0 0 15.019 13.57">
  <path id="ic_menu_sair" d="M8.55,14.489a.973.973,0,1,1-1.376,1.376L3.781,12.473a1,1,0,0,1,0-1.376L7.174,7.7A.973.973,0,0,1,8.55,9.081L6.805,10.816h6.388a.969.969,0,0,1,0,1.939H6.805ZM16.1,5H11.254a.485.485,0,0,0,0,.969H16.1a1.454,1.454,0,0,1,1.454,1.454v8.724A1.454,1.454,0,0,1,16.1,17.6H11.254a.485.485,0,0,0,0,.969H16.1a2.423,2.423,0,0,0,2.423-2.423V7.423A2.423,2.423,0,0,0,16.1,5Z" transform="translate(-3.505 -5)" fill="#4ea19e"/>
</svg>
