<svg xmlns="http://www.w3.org/2000/svg" width="16.511" height="10.931" viewBox="0 0 16.511 10.931">
  <g id="ic_menu_dependentes" transform="translate(-1.9 -1.9)">
    <path id="bla" d="M7.343,8.018A3.059,3.059,0,1,0,4.284,4.959,3.062,3.062,0,0,0,7.343,8.018Zm2.7.675H8.873a3.738,3.738,0,0,1-3.1,0H4.6a2.707,2.707,0,0,0-2.7,2.7v.36a1.046,1.046,0,0,0,1.035,1.035h8.817a1.046,1.046,0,0,0,1.035-1.035v-.36A2.776,2.776,0,0,0,10.042,8.693Z" transform="translate(0 0)" fill="#4ea19e"/>
    <g id="Grupo_24267" data-name="Grupo 24267" transform="translate(11.355 3.082)">
      <path id="Caminho_2947" data-name="Caminho 2947" d="M28.084,8.115a2.675,2.675,0,0,0-.81-2.969,2.726,2.726,0,0,0-3.059-.27,2.771,2.771,0,0,0-1.26,2.789,2.681,2.681,0,0,0,5.128.45Zm-4.229-.27A1.884,1.884,0,0,1,24.44,5.73,1.825,1.825,0,0,1,26.554,5.6a1.856,1.856,0,0,1-.945,3.464A1.9,1.9,0,0,1,23.855,7.845Z" transform="translate(-22.919 -4.529)" fill="#4ea19e"/>
      <path id="Caminho_2948" data-name="Caminho 2948" d="M29.359,17.645a10.962,10.962,0,0,0-1.215-.045.726.726,0,0,0-.4.135c-.18.045-.36.09-.585.135a2.562,2.562,0,0,1-1.17-.18.429.429,0,0,0-.54.135.417.417,0,0,0,.135.54,3.181,3.181,0,0,0,2.564.045,3.415,3.415,0,0,1,1.664.225,1.578,1.578,0,0,1,.72,1.035c.045.225.135.675-.09.9a.669.669,0,0,1-.4.09H26.075a.406.406,0,0,0,0,.81H29.9a3.4,3.4,0,0,0,.675-.045,1.238,1.238,0,0,0,.765-1.26A2.375,2.375,0,0,0,29.359,17.645Z" transform="translate(-24.284 -11.72)" fill="#4ea19e"/>
    </g>
  </g>
</svg>
