<svg xmlns="http://www.w3.org/2000/svg" width="16" height="16" viewBox="0 0 16 16">
  <g id="ic_usuario" transform="translate(-8 -8)">
    <path id="Caminho_2983" data-name="Caminho 2983" d="M16.1,17a4.5,4.5,0,1,1,4.5-4.5A4.5,4.5,0,0,1,16.1,17Zm0-8a3.5,3.5,0,1,0,3.5,3.5A3.5,3.5,0,0,0,16.1,9Z"/>
    <path id="Caminho_2984" data-name="Caminho 2984" d="M22.5,24H9.5A1.5,1.5,0,0,1,8,22.5,4.51,4.51,0,0,1,12.5,18h.12l.1.05A9.44,9.44,0,0,0,16,19a9.36,9.36,0,0,0,3.28-.95l.1-.05h.12A4.51,4.51,0,0,1,24,22.5,1.5,1.5,0,0,1,22.5,24ZM12.39,19A3.51,3.51,0,0,0,9,22.5a.5.5,0,0,0,.5.5h13a.5.5,0,0,0,.5-.5A3.51,3.51,0,0,0,19.61,19,9.84,9.84,0,0,1,16,20a9.9,9.9,0,0,1-3.61-1Z"/>
  </g>
</svg>
