<svg xmlns="http://www.w3.org/2000/svg" width="50.775" height="50.775" viewBox="0 0 50.775 50.775">
  <g id="ic_whatsapp" transform="translate(-288 6195.775)">
    <path id="União_1" data-name="União 1" d="M0,50.775V24.692H.009A25.388,25.388,0,1,1,26.083,50.766v.009Z" transform="translate(288 -6195.775)" fill="#25d366"/>
    <path id="Icon_awesome-whatsapp" data-name="Icon awesome-whatsapp" d="M24.824,6.493A14.473,14.473,0,0,0,2.053,23.952L0,31.447l7.671-2.014a14.424,14.424,0,0,0,6.915,1.76h.007A14.607,14.607,0,0,0,29.2,16.725,14.525,14.525,0,0,0,24.824,6.493ZM14.592,28.756a12,12,0,0,1-6.126-1.675l-.437-.261L3.48,28.013l1.212-4.438-.287-.456a12.049,12.049,0,1,1,22.348-6.393A12.16,12.16,0,0,1,14.592,28.756Zm6.6-9.007c-.358-.182-2.138-1.056-2.47-1.173s-.574-.182-.815.182-.932,1.173-1.147,1.421-.424.274-.782.091a9.841,9.841,0,0,1-4.921-4.3c-.371-.639.371-.593,1.062-1.975a.67.67,0,0,0-.033-.632c-.091-.182-.815-1.962-1.114-2.685-.293-.7-.593-.606-.815-.619s-.45-.013-.691-.013a1.339,1.339,0,0,0-.965.45,4.062,4.062,0,0,0-1.264,3.017,7.082,7.082,0,0,0,1.473,3.741,16.155,16.155,0,0,0,6.178,5.461c2.294.991,3.193,1.075,4.34.906A3.7,3.7,0,0,0,21.663,21.9a3.024,3.024,0,0,0,.209-1.721C21.787,20.016,21.546,19.925,21.188,19.749Z" transform="translate(299 -6187.236)" fill="#fff"/>
  </g>
</svg>
