<svg xmlns="http://www.w3.org/2000/svg" width="25.613" height="25.613" viewBox="0 0 25.613 25.613">
  <g id="Icon_ionic-ios-arrow-dropleft" data-name="Icon ionic-ios-arrow-dropleft" transform="translate(-3.375 -3.375)">
    <path id="Caminho_97" data-name="Caminho 97" d="M20.063,10.329a1.193,1.193,0,0,0-1.681,0l-5.874,5.892a1.187,1.187,0,0,0-.037,1.638l5.788,5.806A1.186,1.186,0,1,0,19.94,21.99L15.027,17l5.043-4.993A1.187,1.187,0,0,0,20.063,10.329Z" transform="translate(-1.093 -0.822)" fill="#1f3267"/>
    <path id="Caminho_98" data-name="Caminho 98" d="M16.182,3.375A12.807,12.807,0,1,0,28.988,16.182,12.8,12.8,0,0,0,16.182,3.375Zm7.659,20.466A10.832,10.832,0,1,1,8.522,8.522,10.832,10.832,0,1,1,23.841,23.841Z" transform="translate(0 0)" fill="#1f3267"/>
  </g>
</svg>
