<svg xmlns="http://www.w3.org/2000/svg" width="36.072" height="36.072" viewBox="0 0 36.072 36.072">
  <g id="im_alert" transform="translate(-387 -130)">
    <g id="im_pendente" transform="translate(-20738 2797)">
      <g id="wink-emoji-svgrepo-com" transform="translate(21125 -2667)">
        <g id="Grupo_24376" data-name="Grupo 24376">
          <path id="Caminho_2919" data-name="Caminho 2919" d="M42.4,24.968A17.435,17.435,0,1,1,24.968,7.533,17.447,17.447,0,0,1,42.4,24.968" transform="translate(-6.932 -6.932)" fill="#f34737"/>
          <path id="Caminho_2920" data-name="Caminho 2920" d="M243.1,7.533h-.9a17.46,17.46,0,0,1,0,34.87h.9a17.435,17.435,0,0,0,0-34.87" transform="translate(-225.066 -6.932)" fill="#c42e20"/>
          <path id="Caminho_2921" data-name="Caminho 2921" d="M24.968,7.533h.9a17.46,17.46,0,0,0,0,34.87h-.9a17.435,17.435,0,0,1,0-34.87" transform="translate(-6.932 -6.932)" fill="#fff"/>
          <path id="Caminho_2926" data-name="Caminho 2926" d="M17.036,35.072A18.036,18.036,0,1,1,35.072,17.036,18.089,18.089,0,0,1,17.036,35.072Zm0-34.87A16.834,16.834,0,1,0,33.87,17.036,16.883,16.883,0,0,0,17.036.2Z" transform="translate(1 1)"/>
        </g>
      </g>
    </g>
    <text id="_" data-name="!" transform="translate(400 159)" font-size="30" font-family="ArialRoundedMTBold, Arial Rounded MT"><tspan x="0" y="0">!</tspan></text>
  </g>
</svg>
