<svg xmlns="http://www.w3.org/2000/svg" width="36.072" height="36.072" viewBox="0 0 36.072 36.072">
  <g id="im_smile" transform="translate(-21125 2667)">
    <g id="wink-emoji-svgrepo-com" transform="translate(21125 -2667)">
      <path id="Caminho_2919" data-name="Caminho 2919" d="M42.4,24.968A17.435,17.435,0,1,1,24.968,7.533,17.447,17.447,0,0,1,42.4,24.968" transform="translate(-6.932 -6.932)" fill="#ffe100"/>
      <path id="Caminho_2920" data-name="Caminho 2920" d="M243.1,7.533h-.9a17.46,17.46,0,0,1,0,34.87h.9a17.435,17.435,0,0,0,0-34.87" transform="translate(-225.066 -6.932)" fill="#ffa800"/>
      <path id="Caminho_2921" data-name="Caminho 2921" d="M24.968,7.533h.9a17.46,17.46,0,0,0,0,34.87h-.9a17.435,17.435,0,0,1,0-34.87" transform="translate(-6.932 -6.932)" fill="#fff"/>
      <path id="Caminho_2922" data-name="Caminho 2922" d="M140.344,137.939a2.4,2.4,0,1,1-2.4-2.4,2.412,2.412,0,0,1,2.4,2.4" transform="translate(-125.915 -125.915)" fill="#63d3fd"/>
      <path id="Caminho_2923" data-name="Caminho 2923" d="M157.769,135.533a2.412,2.412,0,0,0-.9.18,2.4,2.4,0,0,1,0,4.449,2.4,2.4,0,1,0,.9-4.629" transform="translate(-145.745 -125.914)" fill="#3db9f9"/>
      <path id="Caminho_2924" data-name="Caminho 2924" d="M311.011,140.528a.362.362,0,0,1-.24-.06l-4.208-1.8a.586.586,0,0,1,0-1.082l4.208-1.8a.592.592,0,1,1,.481,1.082l-2.946,1.263,2.946,1.263a.6.6,0,0,1,.3.782A.578.578,0,0,1,311.011,140.528Z" transform="translate(-284.558 -126.1)"/>
      <path id="Caminho_2926" data-name="Caminho 2926" d="M17.036,35.072A18.036,18.036,0,1,1,35.072,17.036,18.089,18.089,0,0,1,17.036,35.072Zm0-34.87A16.834,16.834,0,1,0,33.87,17.036,16.883,16.883,0,0,0,17.036.2Z" transform="translate(1 1)"/>
      <path id="Caminho_2927" data-name="Caminho 2927" d="M130.006,133.012a3.006,3.006,0,1,1,3.006-3.006A3.015,3.015,0,0,1,130.006,133.012Zm0-4.81a1.8,1.8,0,1,0,1.8,1.8A1.809,1.809,0,0,0,130.006,128.2Z" transform="translate(-117.982 -117.982)"/>
    </g>
    <path id="Caminho_2928" data-name="Caminho 2928" d="M119.8,320.2a11.613,11.613,0,0,1-9.5-5.05.609.609,0,0,1,1.022-.661,10.242,10.242,0,0,0,17.014-.06.609.609,0,0,1,1.022.661A11.706,11.706,0,0,1,119.8,320.2Z" transform="translate(21023.207 -2958.944)"/>
  </g>
</svg>
