<svg xmlns="http://www.w3.org/2000/svg" width="194.222" height="65.664" viewBox="0 0 194.222 65.664">
  <g id="logo_assinatura_email" transform="translate(-33.1 -25.1)">
    <g id="Grupo_1" data-name="Grupo 1" transform="translate(127.084 25.636)">
      <path id="Caminho_1" data-name="Caminho 1" d="M455.4,45.307a.54.54,0,0,1-.581.313,4.824,4.824,0,0,0-1.787.089,2.955,2.955,0,0,0-2.323,2.814v7.37c-.045.223-.134.357-.357.357H445.7a.4.4,0,0,1-.4-.4V40.528c0-.625.089-.67.67-.67h4.065c.581,0,.67.089.67.67a2.44,2.44,0,0,0,.045.8c.179.045.223-.089.268-.134a5.353,5.353,0,0,1,3.306-1.563c.179,0,.357-.045.491-.045a.476.476,0,0,1,.581.357Z" transform="translate(-355.157 -33.648)" fill="#213368"/>
      <path id="Caminho_2" data-name="Caminho 2" d="M243.5,37.6V26.657c.045-.223.134-.357.357-.357h8.889a10.33,10.33,0,0,1,4.6,1.027,10.5,10.5,0,0,1,5.718,6.522,11.852,11.852,0,0,1-.4,8.666,10.566,10.566,0,0,1-8.04,6.343,9.058,9.058,0,0,1-1.921.134H244.17c-.625,0-.67-.045-.67-.715Zm5.762,5.762c.223,0,.4.045.536.045h2.68a5.987,5.987,0,0,0,.893-.045,4.852,4.852,0,0,0,4.333-3.306,7.338,7.338,0,0,0-.223-5.4,4.916,4.916,0,0,0-2.993-2.591,5.969,5.969,0,0,0-1.787-.268H249.62c-.134,0-.223.045-.357.045C249.262,35.725,249.262,39.522,249.262,43.364Z" transform="translate(-243.5 -26.3)" fill="#213368"/>
      <path id="Caminho_3" data-name="Caminho 3" d="M411.728,56.563a8.534,8.534,0,0,1-8.309-5.807,8.65,8.65,0,0,1,9.247-11.435,8.319,8.319,0,0,1,5.226,2.546,8.181,8.181,0,0,1,2.323,4.914,8.489,8.489,0,0,1-1.653,6.343,8.333,8.333,0,0,1-6.164,3.395A4.125,4.125,0,0,1,411.728,56.563Zm3.127-8.755a1.85,1.85,0,0,0-.045-.447,3.086,3.086,0,0,0-2.412-2.68,3.876,3.876,0,0,0-1.251-.045,3,3,0,0,0-2.591,1.965,3.893,3.893,0,0,0-.134,2.367,2.915,2.915,0,0,0,2.323,2.233,3.876,3.876,0,0,0,1.251.045,3.01,3.01,0,0,0,2.546-1.965A2.749,2.749,0,0,0,414.855,47.808Z" transform="translate(-331.725 -33.469)" fill="#213368"/>
      <path id="Caminho_4" data-name="Caminho 4" d="M300.367,56.563a8.558,8.558,0,0,1-8.13-5.4,8.676,8.676,0,0,1,3.618-10.721,8.774,8.774,0,0,1,5.494-1.117,8.222,8.222,0,0,1,6.343,4.11,8.729,8.729,0,0,1-2.1,11.346,8.418,8.418,0,0,1-4.512,1.742A4.349,4.349,0,0,1,300.367,56.563Zm3.216-8.666a7.425,7.425,0,0,0-.134-.983,3.052,3.052,0,0,0-2.233-2.278,4.134,4.134,0,0,0-1.3-.089,2.979,2.979,0,0,0-2.635,2.055,3.7,3.7,0,0,0,0,2.5,3.019,3.019,0,0,0,2.189,2.01,3.406,3.406,0,0,0,1.34.089,3.019,3.019,0,0,0,2.591-2.1A8.638,8.638,0,0,0,303.584,47.9Z" transform="translate(-270.126 -33.469)" fill="#213368"/>
      <path id="Caminho_5" data-name="Caminho 5" d="M334.7,45.828V40.959c0-.67.045-.759.715-.759H339.3c.8,0,.8.045.8.8v8.04a6.591,6.591,0,0,0,.045.938,4.669,4.669,0,0,0,.179.759,1.878,1.878,0,0,0,1.206,1.117,3.048,3.048,0,0,0,1.787.045,2.114,2.114,0,0,0,1.474-1.876,4.854,4.854,0,0,0,.045-.8V40.647c0-.268.134-.357.4-.4h4.378c.581,0,.67.089.67.67v9.47a7.771,7.771,0,0,1-.268,2.01,5.874,5.874,0,0,1-2.859,3.663,7.308,7.308,0,0,1-2.5.893,11.324,11.324,0,0,1-5.048-.179,7.288,7.288,0,0,1-1.921-.8,5.747,5.747,0,0,1-2.814-4.244c-.089-.491-.089-.938-.134-1.429C334.7,48.732,334.7,47.3,334.7,45.828Z" transform="translate(-293.962 -33.991)" fill="#213368"/>
      <path id="Caminho_6" data-name="Caminho 6" d="M376.957,39.993H374.9c-.268,0-.357-.134-.4-.4V35.08a.379.379,0,0,1,.313-.357h1.7a1.676,1.676,0,0,0,.447-.045c0-.179.045-.313.045-.491V31.015c0-.67.045-.715.715-.715h4.02c.625,0,.67.045.67.67v3.618a1.11,1.11,0,0,0,.357.045h2.323c.4,0,.536.134.536.536v4.378c0,.179-.134.268-.313.313h-2.859c0,.134-.045.223-.045.313v4.869c0,.581.179.8.759.938a2.3,2.3,0,0,0,.491.089h1.519c.268,0,.357.134.4.357v3.931c0,.581-.045.67-.625.715a17.984,17.984,0,0,1-3.8-.045,7.511,7.511,0,0,1-1.429-.4,4.156,4.156,0,0,1-2.278-2.323,5.314,5.314,0,0,1-.4-1.608c-.045-.536-.089-1.117-.089-1.653V40.485C377,40.44,376.957,40.261,376.957,39.993Z" transform="translate(-315.983 -28.513)" fill="#213368"/>
    </g>
    <g id="Grupo_4" data-name="Grupo 4" transform="translate(46.439 25.1)">
      <g id="Grupo_2" data-name="Grupo 2" transform="translate(36.138)">
        <path id="Caminho_7" data-name="Caminho 7" d="M156.387,25.1c.357.045.715.134,1.072.179a11.563,11.563,0,0,1,9.6,8.845,11.915,11.915,0,0,1-3.752,11.793,11.31,11.31,0,0,1-5.941,2.68,11.65,11.65,0,0,1-8.487-1.965,11.191,11.191,0,0,1-4.869-7.906,11.516,11.516,0,0,1,1.787-8.353,11.229,11.229,0,0,1,7.951-5.092c.268-.045.491-.045.759-.089a1.051,1.051,0,0,0,.357-.089Zm-.759,18h.625a3.074,3.074,0,0,0,.581-.089,5.555,5.555,0,0,0,4.333-3.44,6.722,6.722,0,0,0,.045-5.182,5.626,5.626,0,0,0-3.618-3.35,6.351,6.351,0,0,0-3.038-.179,5.528,5.528,0,0,0-4.467,3.752,6.566,6.566,0,0,0-.268,3.708,5.994,5.994,0,0,0,1.519,2.993A5.479,5.479,0,0,0,155.628,43.1Z" transform="translate(-143.864 -25.1)" fill="#4ea19e"/>
        <path id="Caminho_8" data-name="Caminho 8" d="M206.85,38.395c.134-.223.268-.357.357-.491,1.117-1.608,2.189-3.216,3.306-4.824a.617.617,0,0,0,.134-.179.81.81,0,0,1,.893-.447h4.69a1.52,1.52,0,0,1,.447.045.338.338,0,0,1,.223.536l-.268.4c-1.653,2.278-3.306,4.556-4.958,6.79a4.706,4.706,0,0,0-.313.491c.134.179.268.357.357.491,1.7,2.233,3.35,4.512,5.048,6.745.089.134.223.268.313.4a.318.318,0,0,1-.223.491h-5.226a.524.524,0,0,1-.491-.223c-.045-.089-.134-.179-.223-.313-1.206-1.653-2.412-3.35-3.618-5a1.568,1.568,0,0,0-.357-.447.735.735,0,0,0-.089.4v4.914a.983.983,0,0,1-.045.357.379.379,0,0,1-.313.313H202.07c-.581,0-.67-.045-.67-.625V26.6c0-.268.134-.357.4-.4h4.288c.715,0,.759.045.759.759v10.81A.761.761,0,0,0,206.85,38.395Z" transform="translate(-175.699 -25.709)" fill="#4ea19e"/>
      </g>
      <g id="Grupo_3" data-name="Grupo 3" transform="translate(0 0.607)">
        <path id="Caminho_9" data-name="Caminho 9" d="M72.941,54.2a14.129,14.129,0,0,1-9.113-3.172,4.028,4.028,0,0,1-.447-.4,1.646,1.646,0,0,1-.268-1.787,1.536,1.536,0,0,1,1.519-.849,1.622,1.622,0,0,1,.759.313,2.238,2.238,0,0,1,.357.313,10.925,10.925,0,0,0,13.848,0c.134-.089.268-.223.4-.313a1.545,1.545,0,0,1,2.01,2.323c-.134.134-.268.223-.4.357a13.687,13.687,0,0,1-6.968,3.082A13.394,13.394,0,0,1,72.941,54.2Z" transform="translate(-62.963 -38.373)" fill="#4ea19e"/>
        <path id="Caminho_10" data-name="Caminho 10" d="M65.786,29.746V28.317a1.926,1.926,0,0,1,1.3-1.742,1.872,1.872,0,0,1,2.412,1.34,2.305,2.305,0,0,1,.089.491v2.77a2.023,2.023,0,0,1-.134.715A1.9,1.9,0,0,1,67.394,33.1a1.822,1.822,0,0,1-1.563-1.787,9.148,9.148,0,0,1-.045-1.563Z" transform="translate(-64.519 -26.467)" fill="#4ea19e"/>
        <path id="Caminho_11" data-name="Caminho 11" d="M99,29.783V31.3a1.847,1.847,0,0,1-2.1,1.787,1.883,1.883,0,0,1-1.7-1.831v-2.77a3.934,3.934,0,0,1,.089-.759,1.885,1.885,0,0,1,3.663.491c.045.536.045,1.072.045,1.563Z" transform="translate(-80.8 -26.459)" fill="#4ea19e"/>
      </g>
    </g>
    <path id="Caminho_12" data-name="Caminho 12" d="M33.4,42.8" transform="translate(-0.166 -9.794)" fill="#fff" stroke="#000" stroke-miterlimit="10" stroke-width="1"/>
    <path id="Caminho_13" data-name="Caminho 13" d="M93.225,85.869a6.52,6.52,0,0,0-4.154-5.539,5.011,5.011,0,0,1-.581-.223V74.613A9.765,9.765,0,0,0,88.356,73a7.7,7.7,0,0,0-7.058-6.3,7.235,7.235,0,0,0-5.4,1.7c-.268.223-.536.491-.8.715-3.44,3.172-6.879,6.3-10.319,9.47a3.907,3.907,0,0,0-.447.357,3.687,3.687,0,0,1-3.306.715,3.73,3.73,0,0,1-2.9-2.9,4.714,4.714,0,0,1-.089-1.117V66.93c0-.134.045-.268.045-.4.179-.089.313-.223.491-.313A36.549,36.549,0,0,0,62.626,63.4a48.991,48.991,0,0,0,12.6-14.83,41.851,41.851,0,0,0,3.529-8.085,10.78,10.78,0,0,0,.491-4.467,8.031,8.031,0,0,0-.938-3.038,6.146,6.146,0,0,0-5.137-3.216,25.933,25.933,0,0,0-2.635,0,1.822,1.822,0,0,0-1.787,1.787,1.852,1.852,0,0,0,1.563,1.965,3.381,3.381,0,0,0,.67.045h1.787A2.439,2.439,0,0,1,75.179,35.3a4.184,4.184,0,0,1,.313,1.653,6.827,6.827,0,0,1-.357,2.323c-.313.983-.625,1.965-1.027,2.9A44.409,44.409,0,0,1,65.4,55.762a42.939,42.939,0,0,1-8.666,7.147c-.179.089-.357.223-.536.313-.134-.089-.313-.179-.447-.268l-2.01-1.34A44.765,44.765,0,0,1,40.2,46.248a39.336,39.336,0,0,1-2.948-6.924,6.8,6.8,0,0,1-.357-2.5,3.893,3.893,0,0,1,.491-1.965,2.381,2.381,0,0,1,1.965-1.3,3.381,3.381,0,0,1,.67-.045h1.563a2.529,2.529,0,0,0,.8-.134,1.934,1.934,0,0,0,1.251-2.055,1.849,1.849,0,0,0-1.787-1.653c-.8,0-1.608-.045-2.412,0a6.28,6.28,0,0,0-5.628,3.886,6.892,6.892,0,0,0-.625,2.323v.045a10.8,10.8,0,0,0-.045,2.367,8.945,8.945,0,0,0,.179,1.072,18.511,18.511,0,0,0,.8,2.68,46.212,46.212,0,0,0,5.807,10.989A47.332,47.332,0,0,0,53.916,66.349c.134.089.223.179.357.268V75.73a10.868,10.868,0,0,0,.134,1.7,7.745,7.745,0,0,0,10.721,5.628,8.974,8.974,0,0,0,2.278-1.563c3.484-3.216,7.013-6.432,10.5-9.649a2.341,2.341,0,0,1,.491-.447A3.925,3.925,0,0,1,84.6,73.541a4.77,4.77,0,0,1,.134,1.117v5c0,.134-.045.268-.045.447-.223.089-.4.179-.625.268a6.7,6.7,0,0,0,1.3,12.775,1.051,1.051,0,0,1,.357.089c.625,0,1.206,0,1.742.045.268-.089.536-.134.8-.223A6.669,6.669,0,0,0,93.225,85.869Zm-6.566,3.618a2.966,2.966,0,0,1-2.9-2.948,2.9,2.9,0,1,1,5.807,0A3.027,3.027,0,0,1,86.659,89.488Z" transform="translate(0 -2.521)" fill="#213368"/>
  </g>
</svg>
