<svg xmlns="http://www.w3.org/2000/svg" width="270.277" height="95.282" viewBox="0 0 270.277 95.282">
  <g id="pix-106" transform="translate(0.023 0.001)">
    <path id="Caminho_3137" data-name="Caminho 3137" d="M393.22,130.137V75.493a18.2,18.2,0,0,1,18.2-18.2l16.132.023A18.177,18.177,0,0,1,445.7,75.493V87.121a18.2,18.2,0,0,1-18.2,18.205h-22.8" transform="translate(-282.625 -41.175)" fill="none" stroke="#939598" stroke-linecap="round" stroke-linejoin="round" stroke-width="6.26"/>
    <path id="Caminho_3138" data-name="Caminho 3138" d="M595.8,57.28h7a7.471,7.471,0,0,1,7.471,7.471v40.816" transform="translate(-428.22 -41.168)" fill="none" stroke="#939598" stroke-linecap="round" stroke-linejoin="round" stroke-width="6.26"/>
    <path id="Caminho_3139" data-name="Caminho 3139" d="M632.284,9.788l-3.173-3.176a2.014,2.014,0,0,1,0-2.85L632.284.59a2.02,2.02,0,0,1,2.855,0l3.17,3.173a2.014,2.014,0,0,1,0,2.85l-3.184,3.176a2.017,2.017,0,0,1-2.852,0" transform="translate(-451.737 0)" fill="#32bcad"/>
    <path id="Caminho_3140" data-name="Caminho 3140" d="M695,57.15h6.94a13.46,13.46,0,0,1,9.519,3.938l16.234,16.234a5.381,5.381,0,0,0,7.615,0L751.481,61.15A13.449,13.449,0,0,1,761,57.212h5.643" transform="translate(-499.516 -41.075)" fill="none" stroke="#939598" stroke-linecap="round" stroke-linejoin="round" stroke-width="6.26"/>
    <path id="Caminho_3141" data-name="Caminho 3141" d="M695,172.1h6.94a13.463,13.463,0,0,0,9.519-3.938l16.234-16.234a5.387,5.387,0,0,1,7.615,0l16.174,16.175A13.457,13.457,0,0,0,761,172.046h5.643" transform="translate(-499.516 -108.063)" fill="none" stroke="#939598" stroke-linecap="round" stroke-linejoin="round" stroke-width="6.26"/>
    <path id="Caminho_3142" data-name="Caminho 3142" d="M115.232,218.96a12.959,12.959,0,0,1-9.221-3.806L92.692,201.827a2.532,2.532,0,0,0-3.5,0L75.828,215.191a12.965,12.965,0,0,1-9.221,3.817H64l16.878,16.878a13.5,13.5,0,0,0,19.075,0l16.912-16.914Z" transform="translate(-46.013 -144.55)" fill="#32bcad"/>
    <path id="Caminho_3143" data-name="Caminho 3143" d="M66.61,43.908a12.962,12.962,0,0,1,9.221,3.817L89.2,61.092a2.478,2.478,0,0,0,3.5,0l13.317-13.317a12.94,12.94,0,0,1,9.221-3.82h1.6L99.924,27.044a13.485,13.485,0,0,0-19.075,0L64,43.908Z" transform="translate(-46.013 -16.597)" fill="#32bcad"/>
    <path id="Caminho_3144" data-name="Caminho 3144" d="M84.811,120.774,74.592,110.555a1.969,1.969,0,0,1-.726.146H69.219a9.176,9.176,0,0,0-6.45,2.672L49.452,126.682a6.4,6.4,0,0,1-9.038,0L27.047,113.323a9.176,9.176,0,0,0-6.45-2.675h-5.7a2,2,0,0,1-.686-.138L3.922,120.774a13.5,13.5,0,0,0,0,19.075l10.262,10.262a1.927,1.927,0,0,1,.686-.138H20.6a9.179,9.179,0,0,0,6.45-2.675l13.364-13.364a6.549,6.549,0,0,1,9.041,0l13.317,13.314a9.176,9.176,0,0,0,6.45,2.672h4.647a1.941,1.941,0,0,1,.726.146l10.219-10.219a13.485,13.485,0,0,0,0-19.075" transform="translate(0 -79.425)" fill="#32bcad"/>
    <path id="Caminho_3145" data-name="Caminho 3145" d="M434.713,298.354a11.854,11.854,0,0,0-2.5.38v3.331a5.8,5.8,0,0,0,1.947.326c1.671,0,2.461-.563,2.461-2.034,0-1.384-.647-2-1.907-2m-3.063,6.189v-6.591h.458l.048.281a13.183,13.183,0,0,1,2.6-.419,2.577,2.577,0,0,1,1.707.5,2.545,2.545,0,0,1,.754,2.042,2.316,2.316,0,0,1-1.069,2.118,4.1,4.1,0,0,1-1.938.43,6.98,6.98,0,0,1-2-.307v1.938Z" transform="translate(-310.245 -214.036)" fill="#939598"/>
    <path id="Caminho_3146" data-name="Caminho 3146" d="M458.655,298.365c-1.668,0-2.414.523-2.414,1.994,0,1.421.734,2.062,2.414,2.062s2.405-.518,2.405-1.986c0-1.421-.734-2.07-2.405-2.07m2.149,4.056a3.647,3.647,0,0,1-2.149.515,3.691,3.691,0,0,1-2.155-.515,2.3,2.3,0,0,1-.861-2.023,2.326,2.326,0,0,1,.861-2.034,4.755,4.755,0,0,1,4.3,0,2.314,2.314,0,0,1,.858,2.023,2.347,2.347,0,0,1-.858,2.034" transform="translate(-327.487 -214.067)" fill="#939598"/>
    <path id="Caminho_3147" data-name="Caminho 3147" d="M486.217,303.139l-1.862-4h-.037l-1.834,4h-.515L480,298.32h.619l1.651,4.045h.039l1.795-4.045h.515l1.84,4.045h.039l1.612-4.045h.61l-1.986,4.819Z" transform="translate(-344.994 -214.404)" fill="#939598"/>
    <path id="Caminho_3148" data-name="Caminho 3148" d="M516.656,298.338c-1.547,0-2.07.689-2.166,1.688h4.332c-.048-1.1-.61-1.688-2.166-1.688m-.02,4.582a2.922,2.922,0,0,1-2.006-.534,2.5,2.5,0,0,1-.751-2,2.46,2.46,0,0,1,.9-2.062,3.2,3.2,0,0,1,1.879-.487,3.375,3.375,0,0,1,1.927.467,2.448,2.448,0,0,1,.83,2.222h-4.937c.02.993.343,1.871,2.214,1.871a14.554,14.554,0,0,0,2.489-.281v.506a14.72,14.72,0,0,1-2.532.3" transform="translate(-369.344 -214.051)" fill="#939598"/>
    <path id="Caminho_3149" data-name="Caminho 3149" d="M539.3,302.786v-4.819h.456l.048.281a8.469,8.469,0,0,1,2.4-.419h.068v.534h-.135a7.906,7.906,0,0,0-2.27.38v4.037Z" transform="translate(-387.613 -214.052)" fill="#939598"/>
    <path id="Caminho_3150" data-name="Caminho 3150" d="M554.376,298.338c-1.544,0-2.07.689-2.166,1.688h4.332c-.048-1.1-.61-1.688-2.166-1.688m-.02,4.582a2.914,2.914,0,0,1-2-.534,2.5,2.5,0,0,1-.754-2,2.468,2.468,0,0,1,.9-2.062,3.213,3.213,0,0,1,1.879-.487,3.375,3.375,0,0,1,1.927.467,2.449,2.449,0,0,1,.844,2.222h-4.956c.02.993.343,1.871,2.214,1.871a14.559,14.559,0,0,0,2.492-.281v.506a14.756,14.756,0,0,1-2.532.3" transform="translate(-396.454 -214.051)" fill="#939598"/>
    <path id="Caminho_3151" data-name="Caminho 3151" d="M580.4,293.837a5.794,5.794,0,0,0-1.947-.323c-1.671,0-2.461.563-2.461,2.034,0,1.392.65,2,1.907,2a12.4,12.4,0,0,0,2.5-.374Zm.107,4.113-.051-.281a12.961,12.961,0,0,1-2.6.422,2.2,2.2,0,0,1-2.461-2.537,2.255,2.255,0,0,1,1.069-2.11,4.036,4.036,0,0,1,1.947-.439,7.364,7.364,0,0,1,1.994.3V291.1h.563v6.85Z" transform="translate(-413.552 -209.215)" fill="#939598"/>
    <path id="Caminho_3152" data-name="Caminho 3152" d="M616.723,293.533a11.854,11.854,0,0,0-2.5.38v3.322a5.626,5.626,0,0,0,1.947.335c1.671,0,2.461-.563,2.461-2.034,0-1.384-.647-2-1.907-2m1.44,4.121a4.1,4.1,0,0,1-1.935.43,6.85,6.85,0,0,1-2.158-.363l-.028.228h-.383V291.1h.563v2.3a13.6,13.6,0,0,1,2.549-.4,2.577,2.577,0,0,1,1.707.5,2.545,2.545,0,0,1,.754,2.042,2.316,2.316,0,0,1-1.069,2.118" transform="translate(-441.056 -209.215)" fill="#939598"/>
    <path id="Caminho_3153" data-name="Caminho 3153" d="M635.807,304.96v-.523c.281.028.534.048.714.048a1.455,1.455,0,0,0,1.508-.993l.183-.383-2.532-4.819h.653l2.158,4.16h.037l2.051-4.16h.641l-2.712,5.412a1.964,1.964,0,0,1-2.014,1.305,5.476,5.476,0,0,1-.695-.048" transform="translate(-456.882 -214.383)" fill="#939598"/>
    <path id="Caminho_3154" data-name="Caminho 3154" d="M674.476,296.006h-1.868v1.688h1.868c1.288,0,1.775-.143,1.775-.844,0-.754-.669-.844-1.786-.844m-.338-2.723H672.6V295h1.536c1.269,0,1.775-.152,1.775-.866,0-.765-.641-.844-1.786-.844m2.9,5.03c-.689.439-1.519.456-3.035.456H671.14V292.22h2.788a5.3,5.3,0,0,1,2.776.419,1.381,1.381,0,0,1,.669,1.3,1.424,1.424,0,0,1-1.032,1.452v.037c.844.191,1.384.622,1.384,1.547a1.407,1.407,0,0,1-.695,1.328" transform="translate(-482.367 -210.02)" fill="#939598"/>
    <path id="Caminho_3155" data-name="Caminho 3155" d="M703.692,300.793c-.563-.048-1.125-.076-1.736-.076-.982,0-1.328.2-1.328.65s.281.647,1.041.647a9.709,9.709,0,0,0,2.023-.281Zm.281,2.022-.037-.281a11.563,11.563,0,0,1-2.616.422,2.5,2.5,0,0,1-1.46-.354,1.491,1.491,0,0,1,.281-2.47,4.427,4.427,0,0,1,1.806-.259c.5,0,1.181.028,1.744.068v-.087c0-.754-.5-1-1.851-1-.523,0-1.165.028-1.775.084v-.973c.678-.056,1.443-.093,2.073-.093a4.1,4.1,0,0,1,2.25.447,1.794,1.794,0,0,1,.658,1.651v2.852Z" transform="translate(-502.626 -214.081)" fill="#939598"/>
    <path id="Caminho_3156" data-name="Caminho 3156" d="M730.343,302.781v-2.658c0-.878-.447-1.193-1.249-1.193a9.18,9.18,0,0,0-1.969.3v3.55H725.78v-4.821h1.1l.048.307a11.14,11.14,0,0,1,2.577-.439,2.377,2.377,0,0,1,1.651.5,1.876,1.876,0,0,1,.523,1.508v2.948Z" transform="translate(-521.637 -214.047)" fill="#939598"/>
    <path id="Caminho_3157" data-name="Caminho 3157" d="M753.727,302.936a2.73,2.73,0,0,1-1.795-.506,2.485,2.485,0,0,1-.762-2.042,2.349,2.349,0,0,1,.982-2.062,3.824,3.824,0,0,1,2.118-.475c.563,0,1.1.037,1.688.093v1.032c-.487-.048-1.069-.084-1.536-.084-1.28,0-1.882.4-1.882,1.508,0,1.038.45,1.488,1.5,1.488a11.448,11.448,0,0,0,2.023-.248v.99a11.994,11.994,0,0,1-2.346.307" transform="translate(-539.885 -214.067)" fill="#939598"/>
    <path id="Caminho_3158" data-name="Caminho 3158" d="M774.486,298.86c-1.28,0-1.843.4-1.843,1.5s.563,1.564,1.843,1.564,1.823-.391,1.823-1.488-.543-1.575-1.823-1.575m2.309,3.57a4.059,4.059,0,0,1-2.309.506,4.141,4.141,0,0,1-2.318-.506,2.244,2.244,0,0,1-.909-2.031,2.269,2.269,0,0,1,.909-2.045,5.567,5.567,0,0,1,4.627,0,2.257,2.257,0,0,1,.9,2.034,2.292,2.292,0,0,1-.9,2.042" transform="translate(-554.324 -214.067)" fill="#939598"/>
    <path id="Caminho_3159" data-name="Caminho 3159" d="M813.137,298.545a3.632,3.632,0,0,1-2.346-.678,3.369,3.369,0,0,1-1.021-2.729,3.2,3.2,0,0,1,1.325-2.776,5.013,5.013,0,0,1,2.768-.622c.726,0,1.471.048,2.281.115v1.173c-.695-.056-1.556-.1-2.222-.1-1.862,0-2.653.706-2.653,2.214s.734,2.222,2.107,2.222a14.864,14.864,0,0,0,2.911-.391v1.165a16.316,16.316,0,0,1-3.151.411" transform="translate(-582.001 -209.675)" fill="#939598"/>
    <path id="Caminho_3160" data-name="Caminho 3160" d="M839.288,298.686c-1.125,0-1.547.4-1.634,1.125H840.9c-.039-.782-.5-1.125-1.612-1.125m-.2,4.219a3.121,3.121,0,0,1-2.042-.534,2.552,2.552,0,0,1-.774-2.014,2.445,2.445,0,0,1,.909-2.034,3.581,3.581,0,0,1,2.11-.5,3.71,3.71,0,0,1,2.087.487,2.568,2.568,0,0,1,.844,2.374h-4.574c.028.737.419,1.212,1.775,1.212a17.384,17.384,0,0,0,2.568-.248v.945a18.374,18.374,0,0,1-2.9.315" transform="translate(-601.047 -214.045)" fill="#939598"/>
    <path id="Caminho_3161" data-name="Caminho 3161" d="M867.063,302.781v-2.658c0-.878-.447-1.193-1.249-1.193a9.178,9.178,0,0,0-1.969.3v3.55H862.5v-4.821h1.1l.048.307a11.14,11.14,0,0,1,2.577-.439,2.377,2.377,0,0,1,1.651.5,1.876,1.876,0,0,1,.523,1.508v2.948Z" transform="translate(-619.899 -214.047)" fill="#939598"/>
    <path id="Caminho_3162" data-name="Caminho 3162" d="M889.7,299.544a1.746,1.746,0,0,1-1.564-.689,2.489,2.489,0,0,1-.354-1.457v-1.806h-.973v-1h.973l.144-1.46h1.187v1.46h1.9v1h-1.9v1.547a2.323,2.323,0,0,0,.132.917.858.858,0,0,0,.88.447,5.994,5.994,0,0,0,.962-.1v.965a7.753,7.753,0,0,1-1.392.172" transform="translate(-637.37 -210.674)" fill="#939598"/>
    <path id="Caminho_3163" data-name="Caminho 3163" d="M906.44,302.794v-4.819h1.1l.048.307a8.373,8.373,0,0,1,2.385-.439,1.463,1.463,0,0,1,.172,0v1.167h-.467a7.577,7.577,0,0,0-1.89.248v3.558Z" transform="translate(-651.479 -214.06)" fill="#939598"/>
    <path id="Caminho_3164" data-name="Caminho 3164" d="M925.833,300.793c-.563-.048-1.125-.076-1.738-.076-.982,0-1.325.2-1.325.65s.281.647,1.038.647a9.733,9.733,0,0,0,2.025-.281Zm.281,2.022-.039-.281a11.561,11.561,0,0,1-2.616.422A2.5,2.5,0,0,1,922,302.6a1.37,1.37,0,0,1-.534-1.165,1.353,1.353,0,0,1,.813-1.305,4.413,4.413,0,0,1,1.8-.259c.506,0,1.184.028,1.747.068v-.087c0-.754-.5-1-1.851-1-.526,0-1.165.028-1.775.084v-.973c.678-.056,1.44-.093,2.07-.093a4.105,4.105,0,0,1,2.25.447,1.794,1.794,0,0,1,.658,1.651v2.852Z" transform="translate(-662.275 -214.081)" fill="#939598"/>
    <path id="Caminho_3165" data-name="Caminho 3165" d="M947.92,291.1h1.347v6.85H947.92Z" transform="translate(-681.29 -209.215)" fill="#939598"/>
  </g>
</svg>
