<svg id="logo_rodape" xmlns="http://www.w3.org/2000/svg" width="135.885" height="45.941" viewBox="0 0 135.885 45.941">
  <g id="Grupo_1" data-name="Grupo 1" transform="translate(65.755 0.375)">
    <path id="Caminho_1" data-name="Caminho 1" d="M452.363,43.587a.378.378,0,0,1-.406.219,3.375,3.375,0,0,0-1.25.063,2.067,2.067,0,0,0-1.625,1.969v5.157c-.031.156-.094.25-.25.25h-3.25a.28.28,0,0,1-.281-.281V40.243c0-.438.063-.469.469-.469h2.844c.406,0,.469.063.469.469a1.707,1.707,0,0,0,.031.563c.125.031.156-.063.188-.094a3.745,3.745,0,0,1,2.313-1.094c.125,0,.25-.031.344-.031a.333.333,0,0,1,.406.25Z" transform="translate(-382.233 -35.43)" fill="#fff"/>
    <path id="Caminho_2" data-name="Caminho 2" d="M243.5,34.207V26.55c.031-.156.094-.25.25-.25h6.219a7.227,7.227,0,0,1,3.219.719,7.345,7.345,0,0,1,4,4.563,8.292,8.292,0,0,1-.281,6.063,7.392,7.392,0,0,1-5.625,4.438,6.337,6.337,0,0,1-1.344.094h-5.969c-.438,0-.469-.031-.469-.5Zm4.032,4.032c.156,0,.281.031.375.031h1.875a4.189,4.189,0,0,0,.625-.031,3.394,3.394,0,0,0,3.032-2.313,5.134,5.134,0,0,0-.156-3.782,3.439,3.439,0,0,0-2.094-1.813,4.176,4.176,0,0,0-1.25-.188h-2.156c-.094,0-.156.031-.25.031C247.532,32.894,247.532,35.551,247.532,38.238Z" transform="translate(-243.5 -26.3)" fill="#fff"/>
    <path id="Caminho_3" data-name="Caminho 3" d="M409.092,51.365a5.971,5.971,0,0,1-5.813-4.063,6.052,6.052,0,0,1,6.469-8,5.82,5.82,0,0,1,3.657,1.781,5.724,5.724,0,0,1,1.625,3.438,5.939,5.939,0,0,1-1.156,4.438,5.83,5.83,0,0,1-4.313,2.375A2.885,2.885,0,0,1,409.092,51.365Zm2.188-6.125a1.292,1.292,0,0,0-.031-.313,2.159,2.159,0,0,0-1.688-1.875,2.712,2.712,0,0,0-.875-.031,2.1,2.1,0,0,0-1.813,1.375,2.724,2.724,0,0,0-.094,1.656,2.039,2.039,0,0,0,1.625,1.563,2.712,2.712,0,0,0,.875.031,2.106,2.106,0,0,0,1.781-1.375A1.923,1.923,0,0,0,411.279,45.239Z" transform="translate(-353.119 -35.207)" fill="#fff"/>
    <path id="Caminho_4" data-name="Caminho 4" d="M297.741,51.365a5.988,5.988,0,0,1-5.688-3.782,6.07,6.07,0,0,1,2.531-7.5,6.138,6.138,0,0,1,3.844-.781,5.752,5.752,0,0,1,4.438,2.875,6.107,6.107,0,0,1-1.469,7.938,5.89,5.89,0,0,1-3.157,1.219A3.042,3.042,0,0,1,297.741,51.365Zm2.25-6.063a5.194,5.194,0,0,0-.094-.688,2.135,2.135,0,0,0-1.563-1.594,2.892,2.892,0,0,0-.906-.062,2.084,2.084,0,0,0-1.844,1.438,2.589,2.589,0,0,0,0,1.75,2.112,2.112,0,0,0,1.531,1.406,2.383,2.383,0,0,0,.938.063,2.112,2.112,0,0,0,1.813-1.469A6.045,6.045,0,0,0,299.991,45.3Z" transform="translate(-276.583 -35.207)" fill="#fff"/>
    <path id="Caminho_5" data-name="Caminho 5" d="M334.7,44.138V40.731c0-.469.031-.531.5-.531h2.719c.563,0,.563.031.563.563v5.625a4.611,4.611,0,0,0,.031.656,3.267,3.267,0,0,0,.125.531,1.314,1.314,0,0,0,.844.781,2.132,2.132,0,0,0,1.25.031,1.479,1.479,0,0,0,1.031-1.313,3.4,3.4,0,0,0,.031-.563v-6c0-.188.094-.25.281-.281h3.063c.406,0,.469.063.469.469v6.625a5.436,5.436,0,0,1-.187,1.406,4.11,4.11,0,0,1-2,2.563,5.112,5.112,0,0,1-1.75.625,7.923,7.923,0,0,1-3.532-.125,5.1,5.1,0,0,1-1.344-.563,4.021,4.021,0,0,1-1.969-2.969c-.062-.344-.062-.656-.094-1C334.7,46.169,334.7,45.169,334.7,44.138Z" transform="translate(-306.198 -35.856)" fill="#fff"/>
    <path id="Caminho_6" data-name="Caminho 6" d="M376.219,37.082h-1.438c-.188,0-.25-.094-.281-.281V33.644a.265.265,0,0,1,.219-.25h1.188a1.172,1.172,0,0,0,.313-.031c0-.125.031-.219.031-.344V30.8c0-.469.031-.5.5-.5h2.813c.438,0,.469.031.469.469V33.3a.777.777,0,0,0,.25.031h1.625c.281,0,.375.094.375.375v3.063c0,.125-.094.188-.219.219h-2c0,.094-.031.156-.031.219v3.406c0,.406.125.563.531.656a1.613,1.613,0,0,0,.344.063h1.063c.188,0,.25.094.281.25v2.75c0,.406-.031.469-.438.5a12.582,12.582,0,0,1-2.656-.031,5.256,5.256,0,0,1-1-.281,2.907,2.907,0,0,1-1.594-1.625,3.718,3.718,0,0,1-.281-1.125c-.031-.375-.062-.781-.062-1.156V37.426C376.25,37.394,376.219,37.269,376.219,37.082Z" transform="translate(-333.559 -29.05)" fill="#fff"/>
  </g>
  <g id="Grupo_4" data-name="Grupo 4" transform="translate(9.333)">
    <g id="Grupo_2" data-name="Grupo 2" transform="translate(25.283)">
      <path id="Caminho_7" data-name="Caminho 7" d="M152.626,25.1c.25.031.5.094.75.125a8.09,8.09,0,0,1,6.719,6.188,8.336,8.336,0,0,1-2.625,8.251,7.913,7.913,0,0,1-4.157,1.875,8.151,8.151,0,0,1-5.938-1.375,7.829,7.829,0,0,1-3.406-5.532,8.057,8.057,0,0,1,1.25-5.844,7.856,7.856,0,0,1,5.563-3.563c.188-.031.344-.031.531-.063a.736.736,0,0,0,.25-.063Zm-.531,12.595h.438a2.151,2.151,0,0,0,.406-.063,3.886,3.886,0,0,0,3.031-2.406A4.7,4.7,0,0,0,156,31.6a3.936,3.936,0,0,0-2.531-2.344,4.443,4.443,0,0,0-2.125-.125,3.868,3.868,0,0,0-3.125,2.625,4.594,4.594,0,0,0-.188,2.594,4.194,4.194,0,0,0,1.063,2.094A3.833,3.833,0,0,0,152.094,37.695Z" transform="translate(-143.864 -25.1)" fill="#fff"/>
      <path id="Caminho_8" data-name="Caminho 8" d="M205.213,34.732c.094-.156.188-.25.25-.344.781-1.125,1.531-2.25,2.313-3.375a.431.431,0,0,0,.094-.125.567.567,0,0,1,.625-.313h3.281a1.063,1.063,0,0,1,.313.031.236.236,0,0,1,.156.375l-.187.281c-1.156,1.594-2.313,3.188-3.469,4.75a3.288,3.288,0,0,0-.219.344c.094.125.188.25.25.344,1.188,1.563,2.344,3.156,3.532,4.719.063.094.156.188.219.281a.222.222,0,0,1-.156.344h-3.657a.366.366,0,0,1-.344-.156c-.031-.062-.094-.125-.156-.219-.844-1.156-1.688-2.344-2.531-3.5a1.1,1.1,0,0,0-.25-.313.514.514,0,0,0-.062.281v3.438a.688.688,0,0,1-.031.25.265.265,0,0,1-.219.219h-3.094c-.406,0-.469-.031-.469-.438V26.481c0-.188.094-.25.281-.281h3c.5,0,.531.031.531.531v7.563A.532.532,0,0,0,205.213,34.732Z" transform="translate(-183.419 -25.856)" fill="#fff"/>
    </g>
    <g id="Grupo_3" data-name="Grupo 3" transform="translate(0 0.425)">
      <path id="Caminho_9" data-name="Caminho 9" d="M69.943,52.338a9.885,9.885,0,0,1-6.375-2.219,2.818,2.818,0,0,1-.313-.281,1.152,1.152,0,0,1-.188-1.25,1.075,1.075,0,0,1,1.063-.594,1.134,1.134,0,0,1,.531.219,1.566,1.566,0,0,1,.25.219,7.644,7.644,0,0,0,9.688,0c.094-.062.188-.156.281-.219a1.081,1.081,0,0,1,1.406,1.625c-.094.094-.188.156-.281.25a9.576,9.576,0,0,1-4.875,2.156A9.37,9.37,0,0,1,69.943,52.338Z" transform="translate(-62.963 -41.262)" fill="#fff"/>
      <path id="Caminho_10" data-name="Caminho 10" d="M65.783,28.764v-1a1.348,1.348,0,0,1,.906-1.219,1.31,1.31,0,0,1,1.688.938,1.613,1.613,0,0,1,.063.344v1.938a1.415,1.415,0,0,1-.094.5,1.33,1.33,0,0,1-1.438.844,1.275,1.275,0,0,1-1.094-1.25,6.4,6.4,0,0,1-.031-1.094Z" transform="translate(-64.896 -26.469)" fill="#fff"/>
      <path id="Caminho_11" data-name="Caminho 11" d="M97.856,28.785v1.063a1.292,1.292,0,0,1-1.469,1.25A1.317,1.317,0,0,1,95.2,29.816V27.878a2.753,2.753,0,0,1,.063-.531,1.319,1.319,0,0,1,2.563.344c.031.375.031.75.031,1.094Z" transform="translate(-85.125 -26.459)" fill="#fff"/>
    </g>
  </g>
  <path id="Caminho_12" data-name="Caminho 12" d="M33.4,42.8" transform="translate(-33.306 -37.268)" fill="#fff" stroke="#000" stroke-miterlimit="10" stroke-width="1"/>
  <path id="Caminho_13" data-name="Caminho 13" d="M75.166,68.985a4.561,4.561,0,0,0-2.906-3.875,3.508,3.508,0,0,1-.406-.156V61.109a6.832,6.832,0,0,0-.094-1.125,5.385,5.385,0,0,0-4.938-4.407,5.062,5.062,0,0,0-3.782,1.188c-.188.156-.375.344-.563.5-2.406,2.219-4.813,4.407-7.219,6.625a2.733,2.733,0,0,0-.313.25,2.579,2.579,0,0,1-2.313.5A2.609,2.609,0,0,1,50.6,62.609a3.3,3.3,0,0,1-.063-.781V55.734c0-.094.031-.188.031-.281.125-.063.219-.156.344-.219a25.572,25.572,0,0,0,2.844-1.969,34.276,34.276,0,0,0,8.813-10.376,29.28,29.28,0,0,0,2.469-5.657,7.542,7.542,0,0,0,.344-3.125,5.619,5.619,0,0,0-.656-2.125,4.3,4.3,0,0,0-3.594-2.25,18.144,18.144,0,0,0-1.844,0,1.274,1.274,0,0,0-1.25,1.25,1.3,1.3,0,0,0,1.094,1.375,2.366,2.366,0,0,0,.469.031h1.25a1.706,1.706,0,0,1,1.688,1.219,2.927,2.927,0,0,1,.219,1.156,4.777,4.777,0,0,1-.25,1.625c-.219.688-.438,1.375-.719,2.031a31.07,31.07,0,0,1-6.094,9.5,30.042,30.042,0,0,1-6.063,5c-.125.063-.25.156-.375.219-.094-.063-.219-.125-.313-.188l-1.406-.938a31.319,31.319,0,0,1-9.469-10.751,27.52,27.52,0,0,1-2.063-4.844,4.756,4.756,0,0,1-.25-1.75,2.724,2.724,0,0,1,.344-1.375,1.666,1.666,0,0,1,1.375-.906,2.365,2.365,0,0,1,.469-.031h1.094a1.77,1.77,0,0,0,.563-.094,1.353,1.353,0,0,0,.875-1.438,1.293,1.293,0,0,0-1.25-1.156c-.563,0-1.125-.031-1.688,0A4.394,4.394,0,0,0,33.6,32.388a4.822,4.822,0,0,0-.438,1.625v.031a7.556,7.556,0,0,0-.031,1.656,6.258,6.258,0,0,0,.125.75,12.952,12.952,0,0,0,.563,1.875,32.332,32.332,0,0,0,4.063,7.688,33.115,33.115,0,0,0,9.782,9.313c.094.063.156.125.25.188v6.375a7.6,7.6,0,0,0,.094,1.188,5.419,5.419,0,0,0,7.5,3.938A6.279,6.279,0,0,0,57.1,65.922c2.438-2.25,4.907-4.5,7.344-6.751a1.638,1.638,0,0,1,.344-.313,2.746,2.746,0,0,1,4.344,1.5,3.337,3.337,0,0,1,.094.781v3.5c0,.094-.031.188-.031.313-.156.063-.281.125-.438.188a4.69,4.69,0,0,0,.906,8.938.735.735,0,0,1,.25.063c.438,0,.844,0,1.219.031.188-.063.375-.094.563-.156A4.666,4.666,0,0,0,75.166,68.985Zm-4.594,2.531a2.075,2.075,0,0,1-2.031-2.063,2.031,2.031,0,0,1,4.063,0A2.118,2.118,0,0,1,70.572,71.516Z" transform="translate(-33.1 -28.232)" fill="#fff"/>
</svg>
