<svg xmlns="http://www.w3.org/2000/svg" width="175.702" height="54.638" viewBox="0 0 175.702 54.638">
  <g id="logo_topo" transform="translate(-211 -47.9)">
    <g id="Grupo_24272" data-name="Grupo 24272" transform="translate(211 47.9)">
      <path id="Caminho_2951" data-name="Caminho 2951" d="M233.957,152.69a1.076,1.076,0,0,1-.864,1.729h-3.106A13.7,13.7,0,0,1,216.51,140.51v-7.373a.784.784,0,0,0-.783-.783h-3.943a.784.784,0,0,1-.783-.783v-4.483a.784.784,0,0,1,.783-.783h3.943a.784.784,0,0,0,.783-.783v-5.537a.784.784,0,0,1,.783-.783h5.267a.784.784,0,0,1,.783.783v5.537a.784.784,0,0,0,.783.783h5.537a.784.784,0,0,1,.783.783v4.483a.784.784,0,0,1-.783.783h-5.537a.784.784,0,0,0-.783.783V140a7.241,7.241,0,0,0,7.13,7.346h.216a.981.981,0,0,1,.918.675h0A15.5,15.5,0,0,0,233.957,152.69Z" transform="translate(-211 -99.943)" fill="#1f3267"/>
      <path id="Caminho_2952" data-name="Caminho 2952" d="M292.683,146.1h5.348a.784.784,0,0,1,.783.783v12.343a17.139,17.139,0,0,0,.54,5.321,4.686,4.686,0,0,0,1.7,2.323,4.912,4.912,0,0,0,2.863.837,4.629,4.629,0,0,0,4.672-3.214,17.7,17.7,0,0,0,.432-5.024V146.883a.784.784,0,0,1,.783-.783h5.267a.784.784,0,0,1,.783.783v10.749c0,4.753-.378,8.021-1.134,9.777a10.621,10.621,0,0,1-4.051,4.916,12.47,12.47,0,0,1-6.806,1.729,12.236,12.236,0,0,1-7.265-2,10.555,10.555,0,0,1-3.889-5.591c-.54-1.648-.81-4.672-.81-9.021v-10.56A.784.784,0,0,1,292.683,146.1Z" transform="translate(-270.05 -119.578)" fill="#1f3267"/>
      <path id="Caminho_2953" data-name="Caminho 2953" d="M410.247,107.2h5.267a.784.784,0,0,1,.783.783v36.191a.784.784,0,0,1-.783.783h-5.267a.784.784,0,0,1-.783-.783V143.8a.788.788,0,0,0-1.269-.621,13.342,13.342,0,0,1-2.728,1.647,11.176,11.176,0,0,1-4.375.837,12.149,12.149,0,0,1-9.129-4.105,14.313,14.313,0,0,1-3.862-10.182,14.607,14.607,0,0,1,3.727-10.344A11.829,11.829,0,0,1,400.875,117a11.337,11.337,0,0,1,4.591.918,12.148,12.148,0,0,1,2.7,1.62.781.781,0,0,0,1.269-.621V107.956A.822.822,0,0,1,410.247,107.2Zm-7.995,16.124a6.959,6.959,0,0,0-5.267,2.242,8.938,8.938,0,0,0,.027,11.56,6.97,6.97,0,0,0,5.267,2.269,7.093,7.093,0,0,0,5.348-2.242,8.249,8.249,0,0,0,2.134-5.888,7.851,7.851,0,0,0-2.134-5.753A7.124,7.124,0,0,0,402.252,123.324Z" transform="translate(-340.268 -91.184)" fill="#1f3267"/>
      <path id="Caminho_2954" data-name="Caminho 2954" d="M513.953,143.5a14.686,14.686,0,0,1,7.265,1.918,13.894,13.894,0,0,1,5.294,5.24,14.091,14.091,0,0,1,1.891,7.13A14.413,14.413,0,0,1,526.484,165a13.683,13.683,0,0,1-5.213,5.24,14.4,14.4,0,0,1-7.292,1.891,13.623,13.623,0,0,1-10.02-4.159,14.329,14.329,0,0,1,9.993-24.47Zm.135,6.455a7.053,7.053,0,0,0-5.321,2.215,8.755,8.755,0,0,0-.027,11.425,7.5,7.5,0,0,0,10.668-.027,8.755,8.755,0,0,0,.027-11.425A7.105,7.105,0,0,0,514.088,149.955Z" transform="translate(-421.8 -117.68)" fill="#1f3267"/>
      <path id="Caminho_2955" data-name="Caminho 2955" d="M627.425,143.5a14.686,14.686,0,0,1,7.265,1.918,13.9,13.9,0,0,1,5.294,5.24,14.117,14.117,0,0,1,1.918,7.13A14.413,14.413,0,0,1,639.984,165a13.684,13.684,0,0,1-5.213,5.24,14.4,14.4,0,0,1-7.292,1.891,13.623,13.623,0,0,1-10.02-4.159,14.33,14.33,0,0,1,9.966-24.47Zm.108,6.455a7.053,7.053,0,0,0-5.321,2.215,8.755,8.755,0,0,0-.027,11.425,7.5,7.5,0,0,0,10.668-.027,8.755,8.755,0,0,0,.027-11.425A7.024,7.024,0,0,0,627.533,149.955Z" transform="translate(-504.646 -117.68)" fill="#47a09e"/>
      <path id="Caminho_2956" data-name="Caminho 2956" d="M727.283,107.2h5.267a.784.784,0,0,1,.783.783v18.906a.8.8,0,0,0,1.377.54L743.164,118a.818.818,0,0,1,.594-.27h6.455a.8.8,0,0,1,.594,1.323l-10.074,11.208a.786.786,0,0,0,0,1.053l11.425,12.343a.789.789,0,0,1-.567,1.323h-6.347a.736.736,0,0,1-.567-.243l-9.966-10.857a.792.792,0,0,0-1.377.54v9.75a.784.784,0,0,1-.783.783h-5.267a.784.784,0,0,1-.783-.783V107.983A.784.784,0,0,1,727.283,107.2Z" transform="translate(-587.272 -91.184)" fill="#47a09e"/>
      <path id="Caminho_2957" data-name="Caminho 2957" d="M834.067,137.6a4.117,4.117,0,0,1,2.728.972,4.4,4.4,0,0,1,1.566,3.7,4.121,4.121,0,0,1-1.242,2.647,4.182,4.182,0,0,1-3.052,1.269,4.295,4.295,0,0,1,0-8.589Zm-2.647-29.9h5.348a.784.784,0,0,1,.783.783v25.361a.784.784,0,0,1-.783.783h-5.348a.784.784,0,0,1-.783-.783V108.483A.767.767,0,0,1,831.421,107.7Z" transform="translate(-662.672 -91.549)" fill="#47a09e"/>
      <g id="Grupo_24271" data-name="Grupo 24271" transform="translate(5.483)">
        <path id="Caminho_2958" data-name="Caminho 2958" d="M235.054,55.7a3.637,3.637,0,0,1,2.485.945.212.212,0,0,1,0,.3l-.459.459c-.081.081-.162.081-.27,0a2.738,2.738,0,0,0-1.783-.7,2.675,2.675,0,0,0,0,5.348,2.833,2.833,0,0,0,1.783-.675.17.17,0,0,1,.243,0l.486.459a.2.2,0,0,1,0,.27,3.576,3.576,0,0,1-2.512,1,3.7,3.7,0,1,1,.027-7.4Z" transform="translate(-231.3 -53.593)" fill="#1f3267"/>
        <path id="Caminho_2959" data-name="Caminho 2959" d="M267.655,62.822l3.16-6.914a.286.286,0,0,1,.162-.108h.108a.222.222,0,0,1,.162.108l3.133,6.914a.186.186,0,0,1-.162.27h-.648a.236.236,0,0,1-.243-.162l-.648-1.4h-3.322c-.216.486-.432.945-.621,1.4a.245.245,0,0,1-.243.162h-.648A.19.19,0,0,1,267.655,62.822Zm4.672-2.188-1.269-2.809H271l-1.242,2.809Z" transform="translate(-257.824 -53.666)" fill="#1f3267"/>
        <path id="Caminho_2960" data-name="Caminho 2960" d="M308,56.289a.185.185,0,0,1,.189-.189H311a2.213,2.213,0,0,1,2.242,2.215,2.26,2.26,0,0,1-1.512,2.08l1.4,2.62a.189.189,0,0,1-.162.3h-.81A.231.231,0,0,1,312,63.23L310.62,60.5h-1.566V63.1a.185.185,0,0,1-.189.189h-.675A.185.185,0,0,1,308,63.1Zm2.917,3.322a1.242,1.242,0,1,0,0-2.485H309.08v2.512h1.837Z" transform="translate(-287.285 -53.885)" fill="#1f3267"/>
        <path id="Caminho_2961" data-name="Caminho 2961" d="M343.364,57.145h-1.674a.185.185,0,0,1-.189-.189v-.567a.185.185,0,0,1,.189-.189h4.429a.185.185,0,0,1,.189.189v.567a.185.185,0,0,1-.189.189h-1.674v6.023a.185.185,0,0,1-.189.189h-.675a.185.185,0,0,1-.189-.189V57.145Z" transform="translate(-311.737 -53.958)" fill="#1f3267"/>
        <path id="Caminho_2962" data-name="Caminho 2962" d="M372.613,57.056l3.16-6.914a.286.286,0,0,1,.162-.108h.108a.222.222,0,0,1,.162.108l3.133,6.914a.186.186,0,0,1-.162.27h-.648a.236.236,0,0,1-.243-.162l-.648-1.4H374.26c-.216.486-.432.945-.621,1.4a.245.245,0,0,1-.243.162h-.648A.167.167,0,0,1,372.613,57.056Zm1.891-8.048c-.108-.054-.081-.162-.054-.243.081-.189.405-.864,1-.864s.783.648,1.134.648c.243,0,.324-.27.432-.405a.168.168,0,0,1,.27-.081.97.97,0,0,1,.27.189c.054.081.027.162-.027.27-.108.216-.405.783-.972.783-.513,0-.81-.675-1.107-.675-.243,0-.378.3-.432.432-.054.108-.108.162-.243.108Zm2.755,5.861-1.269-2.809h-.054l-1.242,2.809Z" transform="translate(-334.423 -47.9)" fill="#1f3267"/>
        <path id="Caminho_2963" data-name="Caminho 2963" d="M411.7,55.7a3.714,3.714,0,1,1-3.7,3.727A3.695,3.695,0,0,1,411.7,55.7Zm0,6.374a2.674,2.674,0,1,0-2.674-2.674A2.68,2.68,0,0,0,411.7,62.074Z" transform="translate(-360.276 -53.593)" fill="#1f3267"/>
      </g>
    </g>
  </g>
</svg>
