<svg xmlns="http://www.w3.org/2000/svg" width="27.94" height="27.964" viewBox="0 0 27.94 27.964">
  <path id="icon_Pix_1" d="M23.714,33.448a2.444,2.444,0,0,1-1.746.722h0a2.444,2.444,0,0,1-1.746-.722L17.114,30.34a5.6,5.6,0,0,0,1.164-.92l3.492-3.492,3.492,3.492a5.68,5.68,0,0,0,1.4,1.024Zm5.738-4.062a4.086,4.086,0,0,1-2.91-1.164l-4.2-4.2a.78.78,0,0,0-1.094,0l-4.19,4.19a4.132,4.132,0,0,1-2.91,1.164h-.5l5.319,5.319a4.237,4.237,0,0,0,6.006,0l5.308-5.308ZM25.3,14.5,21.8,17.99,18.313,14.5a5.6,5.6,0,0,0-1.164-.92l3.108-3.108a2.468,2.468,0,0,1,3.492,0l2.98,2.98a5.994,5.994,0,0,0-1.4,1.024m-.326-5.249a4.237,4.237,0,0,0-6.006,0l-5.319,5.319h.5a4.132,4.132,0,0,1,2.91,1.164l4.19,4.19a.768.768,0,0,0,1.094,0l4.2-4.2a4.085,4.085,0,0,1,2.91-1.164h.826Zm8.439,14.491-2.665,2.677H29.452a1.164,1.164,0,0,1-.78-.326l-4.1-4.1,4.1-4.1a1.164,1.164,0,0,1,.78-.314h1.327l2.665,2.665a2.468,2.468,0,0,1,0,3.492m-18.46,2.328a1.082,1.082,0,0,1-.78.326h-1l-2.712-2.654a2.468,2.468,0,0,1,0-3.492l2.654-2.654h1a1.083,1.083,0,0,1,.78.326l4.085,4.074Zm19.787-7.077-3.259-3.178h-2.06a2.9,2.9,0,0,0-2.037.838l-4.2,4.179a1.99,1.99,0,0,1-2.84,0L16.148,16.64a2.9,2.9,0,0,0-2.037-.838h-1.7L9.246,18.968a4.237,4.237,0,0,0,0,6.006l3.166,3.166h1.734a2.9,2.9,0,0,0,2-.838l4.19-4.19a2.06,2.06,0,0,1,2.84,0l4.2,4.2a2.9,2.9,0,0,0,2.037.838h2.1l3.178-3.178a4.237,4.237,0,0,0,0-6.006" transform="translate(-7.998 -7.978)" fill="#00aa64"/>
</svg>
