<svg xmlns="http://www.w3.org/2000/svg" width="23.473" height="16.137" viewBox="0 0 23.473 16.137">
  <path id="icon_credit_card__solid_" data-name="icon_credit_card_(solid)" d="M27.805,10.5H11.668A3.668,3.668,0,0,0,8,14.168v8.8a3.668,3.668,0,0,0,3.668,3.668H27.805a3.668,3.668,0,0,0,3.668-3.668v-8.8A3.668,3.668,0,0,0,27.805,10.5ZM11.668,11.967H27.805a2.2,2.2,0,0,1,2.2,2.2V14.9H9.467v-.734A2.2,2.2,0,0,1,11.668,11.967Zm16.137,13.2H11.668a2.2,2.2,0,0,1-2.2-2.2v-6.6H30.006v6.6A2.2,2.2,0,0,1,27.805,25.17Zm-11-5.135a.734.734,0,0,1-.734.734H13.135a.734.734,0,0,1,0-1.467h2.934A.734.734,0,0,1,16.8,20.036Z" transform="translate(-8 -10.5)" fill="#4ea19e"/>
</svg>
