<svg xmlns="http://www.w3.org/2000/svg" width="13.999" height="14" viewBox="0 0 13.999 14">
  <g id="pix-svgrepo-com" transform="translate(-1 -1.001)">
    <path id="Caminho_2990" data-name="Caminho 2990" d="M11.917,11.71a2.046,2.046,0,0,1-1.454-.6l-2.1-2.1a.4.4,0,0,0-.551,0L5.7,11.116a2.044,2.044,0,0,1-1.454.6H3.836l2.66,2.66a2.127,2.127,0,0,0,3.007,0L12.17,11.71h-.253ZM4.25,4.282a2.042,2.042,0,0,1,1.454.6L7.812,6.992a.39.39,0,0,0,.552,0l2.1-2.1a2.044,2.044,0,0,1,1.453-.6h.253L9.5,1.623a2.127,2.127,0,0,0-3.007,0l-2.66,2.66H4.25Z" fill="#4cb8a9"/>
    <path id="Caminho_2991" data-name="Caminho 2991" d="M14.377,6.5,12.765,4.884a.307.307,0,0,1-.114.023h-.733a1.446,1.446,0,0,0-1.017.422l-2.1,2.1a1,1,0,0,1-1.425,0L5.268,5.32A1.448,1.448,0,0,0,4.25,4.9h-.9a.306.306,0,0,1-.109-.021L1.623,6.5a2.128,2.128,0,0,0,0,3.008l1.618,1.618a.3.3,0,0,1,.108-.022h.9a1.447,1.447,0,0,0,1.018-.421L7.375,8.57a1.034,1.034,0,0,1,1.426,0l2.1,2.1a1.445,1.445,0,0,0,1.017.421h.733a.31.31,0,0,1,.114.024L14.377,9.5a2.128,2.128,0,0,0,0-3.008Z" fill="#4cb8a9"/>
  </g>
</svg>
