<svg id="qrcode-svgrepo-com" xmlns="http://www.w3.org/2000/svg" width="206.135" height="206.135" viewBox="0 0 206.135 206.135">
  <path id="Caminho_3041" data-name="Caminho 3041" d="M288,0V73.62h73.62V0Zm58.9,58.9H302.724V14.724H346.9Z" transform="translate(-155.485)" fill="#323232"/>
  <rect id="Retângulo_3583" data-name="Retângulo 3583" width="15" height="14" transform="translate(29.135 30)" fill="#323232"/>
  <rect id="Retângulo_3584" data-name="Retângulo 3584" width="14" height="14" transform="translate(162.135 30)" fill="#323232"/>
  <path id="Caminho_3042" data-name="Caminho 3042" d="M221.448,29.448H206.724V14.724h14.724V0H192V44.172h14.724V58.9h14.724Z" transform="translate(-103.657)" fill="#323232"/>
  <path id="Caminho_3043" data-name="Caminho 3043" d="M73.62,73.62V0H0V73.62H73.62Zm-58.9-58.9H58.9V58.9H14.724Z" fill="#323232"/>
  <path id="Caminho_3044" data-name="Caminho 3044" d="M0,192v29.448H14.724V206.724H29.448V192Z" transform="translate(0 -103.657)" fill="#323232"/>
  <path id="Caminho_3045" data-name="Caminho 3045" d="M206.724,172.172h14.724V142.724H206.724V128H192v29.448h14.724Z" transform="translate(-103.657 -69.104)" fill="#323232"/>
  <rect id="Retângulo_3585" data-name="Retângulo 3585" width="14" height="14" transform="translate(162.135 89)" fill="#323232"/>
  <rect id="Retângulo_3586" data-name="Retângulo 3586" width="14" height="14" transform="translate(192.135 89)" fill="#323232"/>
  <path id="Caminho_3046" data-name="Caminho 3046" d="M285.448,221.448v14.724h14.724V250.9H314.9V221.448H300.172V206.724H285.448V192H270.724v14.724H256v14.724Z" transform="translate(-138.209 -103.657)" fill="#323232"/>
  <rect id="Retângulo_3587" data-name="Retângulo 3587" width="16" height="14" transform="translate(176.135 103)" fill="#323232"/>
  <path id="Caminho_3047" data-name="Caminho 3047" d="M0,288v73.62H73.62V288Zm58.9,58.9H14.724V302.724H58.9Z" transform="translate(0 -155.485)" fill="#323232"/>
  <path id="Caminho_3048" data-name="Caminho 3048" d="M152.343,221.448H137.62V206.724H122.9V192H78.724v14.724H64v14.724H93.448V206.724h14.724v14.724H122.9v14.724H137.62V250.9h14.724Z" transform="translate(-34.552 -103.657)" fill="#323232"/>
  <rect id="Retângulo_3588" data-name="Retângulo 3588" width="14" height="14" transform="translate(133.135 133)" fill="#323232"/>
  <rect id="Retângulo_3589" data-name="Retângulo 3589" width="14" height="30" transform="translate(192.135 117)" fill="#323232"/>
  <rect id="Retângulo_3590" data-name="Retângulo 3590" width="15" height="15" transform="translate(147.135 147)" fill="#323232"/>
  <rect id="Retângulo_3591" data-name="Retângulo 3591" width="16" height="15" transform="translate(176.135 147)" fill="#323232"/>
  <rect id="Retângulo_3592" data-name="Retângulo 3592" width="15" height="15" transform="translate(29.135 162)" fill="#323232"/>
  <path id="Caminho_3049" data-name="Caminho 3049" d="M250.9,349.448V334.724H236.172V320H221.448v14.724H206.724V320H192v29.448h14.724v14.724h14.724V349.448Z" transform="translate(-103.657 -172.761)" fill="#323232"/>
  <path id="Caminho_3050" data-name="Caminho 3050" d="M334.724,366.724H320v14.724h14.724v14.724h14.724V352H334.724Z" transform="translate(-172.761 -190.037)" fill="#323232"/>
  <rect id="Retângulo_3593" data-name="Retângulo 3593" width="14" height="15" transform="translate(192.135 162)" fill="#323232"/>
  <rect id="Retângulo_3594" data-name="Retângulo 3594" width="14" height="14" transform="translate(89.135 192)" fill="#323232"/>
  <rect id="Retângulo_3595" data-name="Retângulo 3595" width="30" height="14" transform="translate(117.135 192)" fill="#323232"/>
  <rect id="Retângulo_3596" data-name="Retângulo 3596" width="14" height="14" transform="translate(192.135 192)" fill="#323232"/>
</svg>
