<?xml version="1.0" encoding="utf-8"?>
<svg xmlns="http://www.w3.org/2000/svg" viewBox="0 0 50 50" width="500" height="500">
  <path d="M18.8125 3C18.335938 3.089844 17.992188 3.511719 18 4L18 18L4 18C3.449219 18 3 18.449219 3 19L3 31C3 31.550781 3.449219 32 4 32L18 32L18 46C18 46.550781 18.449219 47 19 47L31 47C31.550781 47 32 46.550781 32 46L32 32L46 32C46.550781 32 47 31.550781 47 31L47 19C47 18.449219 46.550781 18 46 18L32 18L32 4C32 3.449219 31.550781 3 31 3L19 3C18.96875 3 18.9375 3 18.90625 3C18.875 3 18.84375 3 18.8125 3 Z M 20 5L30 5L30 19C30 19.550781 30.449219 20 31 20L45 20L45 30L31 30C30.449219 30 30 30.449219 30 31L30 45L20 45L20 31C20 30.449219 19.550781 30 19 30L5 30L5 20L19 20C19.550781 20 20 19.550781 20 19Z" fill="#5A5A5B" />
</svg>