<?xml version="1.0" encoding="utf-8"?>
<svg xmlns="http://www.w3.org/2000/svg" viewBox="0 0 64 64" width="512" height="512">
  <path d="M21.832031 3C21.016218 3 20.119579 3.3956679 19.515625 4L18.5 4C17.22925 4 15.522232 4.369792 14.177734 5.7421875C12.833237 7.114583 12 9.3320314 12 12.582031C12 14.377686 12.449285 17.349151 13.173828 20.953125C13.351024 21.834523 13.546455 22.750421 13.755859 23.683594C9.5822894 27.722852 6.9960938 33.258719 6.9960938 39.365234C6.9960938 42.634075 7.4352853 45.403089 7.8710938 47.355469C6.1329451 48.629147 5 50.680007 5 53C5 56.866 8.134 60 12 60C15.866 60 19 56.866 19 53C19 49.134 15.866 46 12 46C11.883155 46 11.769738 46.011919 11.654297 46.017578C11.327981 44.382438 10.996094 42.075107 10.996094 39.365234C10.996094 35.239541 12.466213 31.443981 14.910156 28.376953C15.277204 29.766372 15.659409 31.151292 16.070312 32.490234C16.617216 34.272676 17.140537 36.131034 18.546875 37.634766C19.716228 38.885099 21.454678 39.683679 23.820312 39.919922C23.929779 40.477519 24.069562 41.054143 24.267578 41.957031C24.419123 42.646125 24.831585 43.198032 25.367188 43.554688C26.822072 52.460922 32.629883 58 41 58C50.913 58 57 47.846406 57 40.566406C57 30.274406 51.433703 23.548719 44.095703 20.011719L43.455078 24.117188C49.026078 27.179187 53 32.563406 53 40.566406C53 46.044406 48.325 54 41 54C38.484406 54 30.88566 53.128135 29.296875 43.011719C29.880181 42.437141 30.146725 41.57485 30.089844 40.679688C30.074902 40.441046 30.07459 40.188039 30.076172 39.931641C32.495798 39.709011 34.266518 38.903548 35.453125 37.634766C36.859463 36.131034 37.382784 34.272676 37.929688 32.490234C39.091448 28.704599 40.101629 24.557099 40.826172 20.953125C41.550715 17.349151 42 14.377686 42 12.582031C42 9.3320314 41.166763 7.114583 39.822266 5.7421875C38.477768 4.369792 36.77075 4 35.5 4L34.484375 4C33.880421 3.3956679 32.983782 3 32.167969 3L30.074219 3C28.693219 3 28 4.119 28 5.5C28 6.881 28.693219 8 30.074219 8L32.167969 8C32.983191 8 33.880235 7.6043321 34.484375 7L35.5 7C36.22925 7 37.022232 7.1726923 37.677734 7.8417969C38.333237 8.5109014 39 9.8320315 39 12.582031C39 13.519159 38.759123 15.520817 38.332031 17.974609C35.744614 17.3354 33.07706 17 30.443359 17C26.171359 17 22.165891 18.101672 18.712891 20.013672L19.912109 23.947266C22.950109 22.090266 26.562359 21 30.443359 21C32.852667 21 35.259271 21.292869 37.564453 21.865234C37.206027 23.537314 36.79669 25.276961 36.341797 27.035156C35.255008 27.107656 34.344064 27.912161 33.880859 29.25C32.895859 32.095 33.101 35.042 27 35L27 36.796875L26.998047 36.796875L26.998047 34.998047C20.898047 35.041047 21.103141 32.094 20.119141 29.25C19.655936 27.912161 18.744992 27.107656 17.658203 27.035156C17.066356 24.747624 16.536229 22.455414 16.115234 20.361328C15.409277 16.849802 15 13.809376 15 12.582031C15 9.8320314 15.666763 8.5109014 16.322266 7.8417969C16.977768 7.1726923 17.77075 7 18.5 7L19.515625 7C20.119765 7.6043321 21.016809 8 21.832031 8L23.925781 8C25.306781 8 26 6.881 26 5.5C26 4.119 25.306781 3 23.925781 3L21.832031 3 z M 12 50C13.654 50 15 51.346 15 53C15 54.654 13.654 56 12 56C10.346 56 9 54.654 9 53C9 51.346 10.346 50 12 50 z" fill="#5A5A5B" />
</svg>